<?xml version="1.0" encoding="utf-8"?>
<!-- Generator: Adobe Illustrator 26.0.2, SVG Export Plug-In . SVG Version: 6.00 Build 0)  -->
<svg version="1.1" id="Calque_1" xmlns="http://www.w3.org/2000/svg" xmlns:xlink="http://www.w3.org/1999/xlink" x="0px" y="0px"
	 viewBox="0 0 1000 500" style="enable-background:new 0 0 1000 500;" xml:space="preserve">
<style type="text/css">
	.st0{fill:#9CFF00;}
	.st1{fill:#FFFFFF;}
</style>
<g>
	<g>
		<polygon class="st0" points="333.79,125.79 143.45,125.79 139.43,145.02 151.03,145.02 151.03,162.47 135.78,162.47 
			130.82,186.23 231.79,186.23 99.1,313.87 92.91,343.4 89.26,360.85 85.65,374.21 302.39,373.91 306.54,351.25 291.16,351.25 
			298.14,313.87 188.47,313.87 321.17,186.23 		"/>
		<rect x="102.18" y="165.64" class="st0" width="16.9" height="17.45"/>
	</g>
	<polygon class="st1" points="588.87,126.52 453.99,373.91 522.21,373.91 555.34,313.32 604.51,223.38 604.51,314.14 566.93,314.14 
		535.04,373.99 664.14,373.99 664.14,126.52 	"/>
	<rect x="445.52" y="235.05" class="st1" width="17.49" height="17.5"/>
	<polygon class="st1" points="419.49,313.32 424.05,287.94 410.14,287.94 410.14,270.44 427.2,270.44 453.05,126.52 385.23,126.52 
		335.07,373.67 335.06,373.74 335.06,373.91 442.08,373.91 475.01,313.32 	"/>
	<rect x="790.37" y="144.49" class="st1" width="17.49" height="17.5"/>
	<rect x="896.86" y="292.03" class="st1" width="17.49" height="17.5"/>
	<polygon class="st1" points="871.94,337.12 871.94,319.62 888.6,319.62 888.6,313.32 888.6,126.52 882.36,126.52 829.93,126.52 
		829.65,126.52 829.65,272.14 786.11,191.98 768.78,191.98 768.78,174.48 776.61,174.48 750.56,126.52 748.45,126.52 734.21,126.52 
		683.11,126.52 682.53,126.52 675.26,126.52 675.26,313.32 675.26,373.67 675.26,373.99 734.21,373.99 734.21,373.74 734.26,373.74 
		734.26,373.67 734.26,313.32 734.26,222.41 784.07,313.32 817.14,373.67 817.17,373.74 817.38,373.74 817.52,373.99 829.65,373.99 
		884.97,373.99 888.6,373.99 888.6,373.67 888.6,337.12 	"/>
</g>
</svg>
